<?xml version="1.0" encoding="UTF-8" standalone="no"?>
<!DOCTYPE svg PUBLIC "-//W3C//DTD SVG 1.1//EN" "http://www.w3.org/Graphics/SVG/1.1/DTD/svg11.dtd">
<svg width="100%" height="100%" viewBox="0 0 880 344" version="1.1" xmlns="http://www.w3.org/2000/svg" xmlns:xlink="http://www.w3.org/1999/xlink" xml:space="preserve" xmlns:serif="http://www.serif.com/" style="fill-rule:evenodd;clip-rule:evenodd;stroke-linejoin:round;stroke-miterlimit:2;">
    <g transform="matrix(1,0,0,1,-5313,-4091)">
        <g transform="matrix(1.80062,0,0,1.7916,7298.69,3214.32)">
            <g id="print" transform="matrix(1,0,0,1,-1688.27,-1104.04)">
                <g transform="matrix(0.555365,0,-0.0681903,0.55816,1214.32,998.368)">
                    <g>
                        <g transform="matrix(1,0,0.122785,1,-1222,466)">
                            <path d="M881.377,750L874.446,789L941.786,789C941.786,789 961.855,789.119 973.16,785.168C983.464,781.566 1001.06,771.805 1004.03,756C1007.31,738.5 1000.83,727.231 993.099,718C985.24,708.614 967.921,698.327 963.435,693C959.716,688.584 960.04,682.711 969.169,682C974.642,681.574 1000.51,681.957 1000.51,681.957C1000.51,681.957 1006.87,681.953 1012.34,679C1017.81,676.047 1019.9,667.757 1019.9,667.757L1024.84,640L976.106,640C976.106,640 945.148,639.284 927.238,654C914.263,664.661 910.024,679.833 915.168,691C923.133,708.292 949.273,726.356 954.674,733C958.819,738.098 960.089,745.249 952.673,748C947.257,750.009 936.444,750 936.444,750L881.377,750ZM868.313,789L875.244,750L803.138,750C803.138,750 796.803,750.03 791.429,749C784.055,747.586 777.312,743.057 774.697,733C773.614,728.833 774.699,721 774.699,721L880.699,721C880.699,721 890.444,693.583 885.349,671.959C882.325,659.124 870.558,642.294 828.444,640C809.989,638.995 787.956,640.244 768.76,652.418C730.394,676.751 708.466,726 708.466,726L717.469,674C717.469,674 703.758,635.104 657.474,643C636.172,646.634 614.403,667 614.403,667L619.671,640L566.671,640C566.671,640 559.733,672.298 547.352,686C540.393,693.701 530.69,699 530.69,699C530.69,699 529.447,662.194 489.456,646C473.245,639.435 457.138,639.502 444.123,641C431.109,642.498 419.235,646.286 408.656,652C395.347,659.189 387.634,665.159 377.72,674C354.389,694.807 339.399,727 339.399,727C339.399,727 341.38,713.887 326.188,700.699C320.722,695.955 313.934,693 313.934,693C313.934,693 328.508,686.641 335.136,671C339.515,660.667 342.721,647.451 340.339,636C338.628,627.768 333.456,616.355 320.408,609C312.307,604.433 298.185,600.991 288.201,601.06C264.012,601.226 189.241,601.057 189.241,601.057L156,789C156,789 269.834,788.981 279.125,789C290.857,789.024 305.081,784.333 313.592,778C322.104,771.667 328.498,763.664 335.462,749C342.111,734.999 360.778,721 360.778,721C360.778,721 359.929,737.239 366.913,751C373.486,763.951 385.489,775.446 397.177,781C410.154,787.167 425.676,790.5 447.51,788C462.823,786.247 480.416,779.833 492.511,771C497.956,767.023 509.979,758.375 518.181,745C528.488,728.191 530.69,712 530.69,712C530.69,712 536.147,713.096 544.352,711.137C550.443,709.683 554.815,705 554.815,705L539.988,789L592.988,789C592.988,789 601.416,740.367 602.063,737C605.333,719.987 610.51,703.667 625.8,694C633.313,689.25 648.246,689.205 652.667,695C660.428,705.173 656.127,722.51 655.397,730C655.269,731.317 645,789 645,789L696.988,789C696.988,789 700.74,767.255 707.061,752C717.414,727.015 734.366,716 734.366,716C734.366,716 730.823,735.331 736.429,753C740.175,764.803 747.077,774.301 763.604,783C774.652,788.815 798.962,789 798.962,789L868.313,789ZM220.788,708L212.795,752C212.795,752 253.3,752.35 260.866,751.506C275.507,749.872 285.848,743.293 288.002,732.92C291.787,714.691 278.559,708.457 268.318,708C266.205,707.906 263.444,708 263.444,708L220.788,708ZM450.034,685.373C468.21,685.373 481.039,698.424 478.666,714.5C476.292,730.576 459.609,743.627 441.433,743.627C423.257,743.627 410.428,730.576 412.802,714.5C415.175,698.424 431.859,685.373 450.034,685.373ZM777.668,692.482L849.379,692.482C849.379,692.482 853.357,681.054 845.509,676C832.056,667.336 800.948,670.242 792.492,675C778.425,682.915 777.668,692.482 777.668,692.482ZM233.745,636L227.744,672.808C227.608,672.808 267.895,673.375 272.073,672.808C280.938,671.607 289.937,664.158 291.564,650.904C292.823,640.651 281.905,636 277.074,636C276.076,636 272.937,636 272.937,636L233.745,636Z" style="fill:rgb(0,102,218);"/>
                        </g>
                        <g transform="matrix(1,0,0.122785,1,-1419.46,-1174.22)">
                            <path d="M880.426,2240.91L894.663,2240.91L894.663,2240.91L901.396,2240.91C901.396,2240.91 902.932,2240.9 904.606,2241.21C906.28,2241.52 907.505,2242.12 908.795,2243.25C911.197,2245.35 910.999,2248.21 910.999,2248.21L905.267,2279.63L898.663,2316.22C898.663,2316.22 892.049,2311.67 888.325,2300.07C887.858,2298.62 884.967,2292.66 883.133,2290.38C879.454,2285.8 874.327,2282.47 871.76,2280.76C866.192,2277.07 868.618,2268.88 868.618,2268.88L873.207,2247.61C873.207,2247.61 873.28,2247.24 873.392,2246.68C874.062,2243.33 877.006,2240.91 880.426,2240.91Z" style="fill:rgb(217,48,52);"/>
                        </g>
                    </g>
                </g>
                <g transform="matrix(1.60065,0,-0.224957,1.60871,-1876.29,486.779)">
                    <text x="1650.33px" y="802.43px" style="font-family:'SourceHanSansSC-Heavy', 'Source Han Sans SC', sans-serif;font-weight:900;font-size:50px;fill:rgb(0,102,218);">博志生物科技</text>
                </g>
            </g>
        </g>
    </g>
</svg>
