<?xml version="1.0" encoding="UTF-8" standalone="no"?>
<!DOCTYPE svg PUBLIC "-//W3C//DTD SVG 1.1//EN" "http://www.w3.org/Graphics/SVG/1.1/DTD/svg11.dtd">
<svg width="100%" height="100%" viewBox="0 0 870 189" version="1.1" xmlns="http://www.w3.org/2000/svg" xmlns:xlink="http://www.w3.org/1999/xlink" xml:space="preserve" xmlns:serif="http://www.serif.com/" style="fill-rule:evenodd;clip-rule:evenodd;stroke-linejoin:round;stroke-miterlimit:2;">
    <g transform="matrix(1,0,0,1,-12645,-7486)">
        <g transform="matrix(1,0,0,1,-555.847,2564.25)">
            <g>
                <g transform="matrix(1.52509,-0.880508,0.880508,1.52509,2900.9,11108.2)">
                    <path d="M7163.22,127.012C7163.22,127.012 7166.63,125.269 7170.04,122.547C7172.25,120.792 7173.76,118.617 7173.76,118.617C7173.76,118.617 7173.59,118.449 7173.52,118.393C7170.4,115.641 7168.5,111.555 7168.69,107.077C7169.02,99.201 7175.68,93.073 7183.55,93.401C7191.43,93.73 7197.56,100.39 7197.23,108.266C7197.19,109.254 7197.05,110.215 7196.82,111.139L7196.82,111.139C7196.82,111.139 7196.7,111.671 7196.4,112.511C7196.23,112.98 7196.04,113.437 7195.82,113.88C7194.82,115.99 7192.9,118.869 7189.41,120.832C7180.38,125.915 7163.22,127.012 7163.22,127.012Z" style="fill:rgb(217,48,52);"/>
                </g>
                <g transform="matrix(1,0,0,1,13045.6,4321.57)">
                    <path d="M881.377,750L874.446,789L941.786,789C941.786,789 961.855,789.119 973.16,785.168C983.464,781.566 1001.06,771.805 1004.03,756C1007.31,738.5 1000.83,727.231 993.099,718C985.24,708.614 967.921,697.327 963.435,692C959.716,687.584 960.04,682.711 969.169,682C974.642,681.574 1000.51,681.957 1000.51,681.957C1000.51,681.957 1006.87,681.953 1012.34,679C1017.81,676.047 1018.52,672.059 1019.9,667.757C1021.98,661.257 1024.84,640 1024.84,640L976.106,640C976.106,640 944.295,639.985 927.238,654C914.263,664.661 910.024,679.833 915.168,691C923.133,708.292 949.273,726.356 954.674,733C958.819,738.098 960.089,745.249 952.673,748C947.257,750.009 936.444,750 936.444,750L881.377,750ZM868.313,789L875.244,750L803.138,750C803.138,750 796.803,750.03 791.429,749C784.055,747.586 777.312,743.057 774.697,733C773.614,728.833 774.699,721 774.699,721L880.699,721C880.699,721 884.677,709.808 886.221,696.086C887.093,688.33 887.756,679.611 885.349,671.959C881.921,661.06 870.558,642.294 828.444,640C809.989,638.995 787.956,641.244 768.76,653.418C730.394,677.751 705.466,726 705.466,726C705.466,726 707.802,712.508 710.094,699.268C713.846,677.596 701.307,656.407 680.504,649.266C674.351,647.178 667.371,645.779 659.568,645.61C637.409,645.13 614.403,667 614.403,667L619.671,642L566.671,642C566.671,642 559.733,672.298 547.352,686C540.393,693.701 530.69,699 530.69,699C530.69,699 529.447,662.194 489.456,646C473.245,639.435 457.138,639.502 444.123,641C431.109,642.498 419.235,646.286 408.656,652C395.347,659.189 387.634,665.159 377.72,674C354.389,694.807 339.399,727 339.399,727C339.399,727 341.38,713.887 326.188,700.699C320.722,695.955 313.934,693 313.934,693C313.934,693 328.508,686.641 335.136,671C339.515,660.667 342.721,647.451 340.339,636C338.628,627.768 333.456,616.355 320.408,609C312.307,604.433 298.185,600.991 288.201,601.06C269.621,601.188 221.2,601.118 199.741,601.078C193.67,601.069 188.469,605.423 187.412,611.402C180.45,650.765 156,789 156,789C156,789 269.834,788.981 279.125,789C290.857,789.024 305.081,784.333 313.592,778C322.104,771.667 328.498,763.664 335.462,749C342.111,734.999 360.778,721 360.778,721C360.778,721 359.929,737.239 366.913,751C373.486,763.951 385.489,775.446 397.177,781C410.154,787.167 425.676,790.5 447.51,788C462.823,786.247 480.416,779.833 492.511,771C497.956,767.023 509.979,758.375 518.181,745C528.488,728.191 530.69,712 530.69,712C530.69,712 536.147,713.096 544.352,711.137C550.443,709.683 554.815,705 554.815,705L539.988,789L592.988,789C592.988,789 601.416,740.367 602.063,737C605.333,719.987 610.762,695.856 626.052,686.19C633.565,681.44 649.356,682.206 653.777,688C661.538,698.173 657.237,715.511 656.507,723C656.379,724.318 645,789 645,789L693.988,789C693.988,789 697.74,767.255 704.061,752C714.414,727.015 734.366,716 734.366,716C734.366,716 730.823,735.331 736.429,753C740.175,764.803 747.077,774.301 763.604,783C774.652,788.815 798.962,789 798.962,789L868.313,789ZM227.734,708C223.712,708 220.266,710.877 219.547,714.834C217.301,727.195 212.795,752 212.795,752C212.795,752 253.3,752.35 260.866,751.506C275.507,749.872 285.848,743.293 288.002,732.92C291.787,714.691 278.559,708.457 268.318,708C266.205,707.906 263.444,708 263.444,708C263.444,708 239.82,708 227.734,708ZM450.516,685.488C468.692,685.438 478.111,699.277 477.674,710.776C476.984,728.938 456.45,742.943 438.274,742.943C423.072,742.943 410.552,730.755 412.531,715.681C414.774,698.595 429.677,685.545 450.516,685.488ZM777.668,692.482L849.379,692.482C849.379,692.482 853.357,681.054 845.509,676C832.056,667.336 801.948,671.242 793.492,676C779.425,683.915 777.668,692.482 777.668,692.482ZM239.919,636C236.359,636 233.324,638.581 232.751,642.094C231.046,652.554 227.744,672.808 227.744,672.808C227.608,672.808 267.895,673.375 272.073,672.808C280.938,671.607 289.937,664.158 291.564,650.904C292.823,640.651 281.905,636 277.074,636C276.076,636 272.937,636 272.937,636C272.937,636 250.959,636 239.919,636Z" style="fill:rgb(0,102,218);"/>
                </g>
            </g>
        </g>
    </g>
</svg>
