<?xml version="1.0" encoding="UTF-8" standalone="no"?>
<!DOCTYPE svg PUBLIC "-//W3C//DTD SVG 1.1//EN" "http://www.w3.org/Graphics/SVG/1.1/DTD/svg11.dtd">
<svg width="100%" height="100%" viewBox="0 0 634 635" version="1.1" xmlns="http://www.w3.org/2000/svg" xmlns:xlink="http://www.w3.org/1999/xlink" xml:space="preserve" xmlns:serif="http://www.serif.com/" style="fill-rule:evenodd;clip-rule:evenodd;stroke-linejoin:round;stroke-miterlimit:2;">
    <g transform="matrix(1,0,0,1,-3244,-1945)">
        <g id="favicon" transform="matrix(1,0,0,1,-163.076,131.98)">
            <rect x="3407.26" y="1813.76" width="633.508" height="633.508" style="fill:none;"/>
            <g transform="matrix(1.04731,0,0,1.04731,29.8856,-347.161)">
                <circle cx="3745.05" cy="2145.41" r="64.201" style="fill:rgb(217,48,52);"/>
            </g>
            <g transform="matrix(1.55222,0,0,1.32099,-22493.1,-3338.26)">
                <g>
                    <g>
                        <g transform="matrix(0.691241,0,0,0.812238,8019.77,3039.39)">
                            <path d="M12949,1503.64C12973.3,1485.45 12992.6,1456.85 12997.2,1421.97C13000.7,1395.78 12986.1,1375.26 12974.6,1365.32C12964.6,1356.62 12952.2,1351.21 12952.2,1351.21C12952.2,1351.21 12978.9,1339.56 12991,1310.9C12999,1291.97 13002.9,1267.76 12998.6,1246.77C12995.4,1231.69 12987.9,1210.78 12964,1197.31C12949.2,1188.94 12923.3,1182.63 12905,1182.76C12879.3,1182.93 12802.2,1182.86 12757.9,1182.81C12739.2,1182.79 12723.2,1196.21 12719.9,1214.63C12704.8,1299.94 12664.6,1527.1 12664.6,1527.1C12664.6,1527.1 12871.4,1527.06 12888.4,1527.1C12909.9,1527.14 12933.9,1514.93 12949,1503.64ZM12786.6,1378.69C12782.6,1378.69 12779.2,1381.57 12778.4,1385.53C12774.9,1404.99 12765.9,1459.31 12765.9,1459.31C12765.9,1459.31 12846.6,1459.95 12860.4,1458.4C12887.3,1455.41 12904.7,1444.34 12908.7,1425.34C12915.6,1391.94 12892.9,1379.53 12874.1,1378.69C12870.2,1378.52 12865.2,1378.69 12865.2,1378.69L12786.6,1378.69ZM12809.6,1246.77C12806,1246.77 12803,1249.36 12802.4,1252.87C12799.7,1269.46 12791.5,1314.21 12791.5,1314.21C12791.2,1314.21 12867.8,1315.25 12875.5,1314.21C12891.7,1312.01 12908.2,1302.03 12911.2,1277.75C12913.5,1258.96 12896.2,1246.77 12884.6,1246.77L12809.6,1246.77Z" style="fill:rgb(0,102,218);"/>
                        </g>
                    </g>
                </g>
            </g>
        </g>
    </g>
</svg>
