<svg width="98" height="96" xmlns="http://www.w3.org/2000/svg" xmlns:xlink="http://www.w3.org/1999/xlink" overflow="hidden"><defs><clipPath id="clip0"><rect x="1126" y="584" width="98" height="96"/></clipPath><clipPath id="clip1"><rect x="1127" y="584" width="96" height="96"/></clipPath><clipPath id="clip2"><rect x="1127" y="584" width="96" height="96"/></clipPath><clipPath id="clip3"><rect x="1127" y="584" width="96" height="96"/></clipPath></defs><g clip-path="url(#clip0)" transform="translate(-1126 -584)"><g clip-path="url(#clip1)"><g clip-path="url(#clip2)"><g clip-path="url(#clip3)"><path d="M1162.29 626.293 1151.59 637 1162.29 647.707 1163.71 646.293 1154.41 637 1163.71 627.707 1162.29 626.293Z" fill="#7F7F7F" fill-rule="nonzero" fill-opacity="1"/><path d="M1186.29 627.707 1195.59 637 1186.29 646.293 1187.71 647.707 1198.41 637 1187.71 626.293 1186.29 627.707Z" fill="#7F7F7F" fill-rule="nonzero" fill-opacity="1"/><path d="M1169.08 648.601 1179.08 625.601 1180.92 626.398 1170.92 649.399Z" fill="#7F7F7F" fill-rule="nonzero" fill-opacity="1"/><path d="M1135 663 1215 663 1215 601 1135 601ZM1137 661 1137 617 1213 617 1213 661ZM1213 603 1213 615 1137 615 1137 603Z" fill="#7F7F7F" fill-rule="nonzero" fill-opacity="1"/><path d="M1192 609C1192 610.105 1191.1 611 1190 611 1188.9 611 1188 610.105 1188 609 1188 607.895 1188.9 607 1190 607 1191.1 607 1192 607.895 1192 609Z" fill="#7F7F7F" fill-rule="nonzero" fill-opacity="1"/><path d="M1199 609C1199 610.105 1198.1 611 1197 611 1195.9 611 1195 610.105 1195 609 1195 607.895 1195.9 607 1197 607 1198.1 607 1199 607.895 1199 609Z" fill="#7F7F7F" fill-rule="nonzero" fill-opacity="1"/><path d="M1206 609C1206 610.105 1205.1 611 1204 611 1202.9 611 1202 610.105 1202 609 1202 607.895 1202.9 607 1204 607 1205.1 607 1206 607.895 1206 609Z" fill="#7F7F7F" fill-rule="nonzero" fill-opacity="1"/></g></g></g></g></svg>