<svg width="96" height="97" xmlns="http://www.w3.org/2000/svg" xmlns:xlink="http://www.w3.org/1999/xlink" overflow="hidden"><defs><clipPath id="clip0"><rect x="704" y="585" width="96" height="97"/></clipPath><clipPath id="clip1"><rect x="704" y="586" width="96" height="96"/></clipPath><clipPath id="clip2"><rect x="704" y="586" width="96" height="96"/></clipPath><clipPath id="clip3"><rect x="704" y="586" width="96" height="96"/></clipPath></defs><g clip-path="url(#clip0)" transform="translate(-704 -585)"><g clip-path="url(#clip1)"><g clip-path="url(#clip2)"><g clip-path="url(#clip3)"><path d="M736.506 619.507 738.506 619.507 738.506 617.765C748.087 620.601 752.606 627.424 752.256 638.493L749.506 638.493 749.506 646 757.013 646 757.013 638.493 754.267 638.493C754.562 628.306 750.901 621.283 743.35 617.514 743.318 617.498 743.32 617.49 743.35 617.496L759.55 620.474C759.78 621.928 761.034 622.999 762.506 623 762.528 623 762.548 622.994 762.569 622.994L762.506 636.5C762.507 636.714 762.644 636.903 762.846 636.971 762.898 636.988 762.952 636.997 763.007 636.997 763.163 636.999 763.311 636.927 763.407 636.804L768.018 631.012 775.431 630.871C775.707 630.871 775.931 630.647 775.931 630.371 775.931 630.214 775.857 630.065 775.731 629.971L764.905 621.785C765.453 621.062 765.64 620.128 765.413 619.25 765.003 617.65 763.374 616.685 761.774 617.094 760.99 617.295 760.321 617.805 759.919 618.507L738.506 614.572 738.506 612 731 612 731 619.507 736.506 619.507ZM755.013 644 751.506 644 751.506 640.493 755.013 640.493ZM767.975 629.015 767.034 629.033 766.448 629.769 764.548 632.16C764.538 632.173 764.53 632.17 764.53 632.154L764.567 624.054C764.567 624.043 764.575 624.039 764.584 624.046L771.046 628.937C771.058 628.947 771.056 628.955 771.04 628.955ZM733 614 736.506 614 736.506 617.507 733 617.507Z" fill="#7F7F7F" fill-rule="nonzero" fill-opacity="1"/><path d="M788 600.981 716 600.981C713.794 600.988 712.007 602.775 712 604.981L712 653C712.007 655.206 713.794 656.993 716 657L745 657 745 667 734 667 734 669 770 669 770 667 759 667 759 657 788 657C790.206 656.993 791.993 655.206 792 653L792 604.982C791.994 602.775 790.207 600.988 788 600.981ZM757 667 747 667 747 657 757 657ZM790 653C790 654.105 789.105 655 788 655L716 655C714.895 655 714 654.105 714 653L714 604.982C714 603.877 714.895 602.982 716 602.982L788 602.982C789.105 602.982 790 603.877 790 604.982Z" fill="#7F7F7F" fill-rule="nonzero" fill-opacity="1"/><path d="M719 605.983 717 605.983 717 652 787 652 787 605.983 719 605.983ZM785 650 719 650 719 607.983 785 607.983Z" fill="#7F7F7F" fill-rule="nonzero" fill-opacity="1"/></g></g></g></g></svg>