<svg width="88" height="88" xmlns="http://www.w3.org/2000/svg" xmlns:xlink="http://www.w3.org/1999/xlink" overflow="hidden"><defs><clipPath id="clip0"><rect x="1128" y="138" width="88" height="88"/></clipPath><clipPath id="clip1"><rect x="1128" y="139" width="87" height="87"/></clipPath><clipPath id="clip2"><rect x="1128" y="139" width="87" height="87"/></clipPath><clipPath id="clip3"><rect x="1128" y="139" width="87" height="87"/></clipPath></defs><g clip-path="url(#clip0)" transform="translate(-1128 -138)"><g clip-path="url(#clip1)"><g clip-path="url(#clip2)"><g clip-path="url(#clip3)"><path d="M1213.13 174.145C1212.71 171.415 1210.16 169.541 1207.43 169.96 1204.98 170.335 1203.18 172.445 1203.19 174.921L1192.92 176.981 1179.58 161.68 1183.01 151.715C1185.73 152.154 1188.29 150.301 1188.73 147.578 1189.17 144.855 1187.32 142.293 1184.59 141.855 1181.87 141.416 1179.31 143.269 1178.87 145.992 1178.54 148.036 1179.51 150.071 1181.3 151.108L1177.87 161.065 1157.84 164.987 1150.84 156.969C1152.57 154.819 1152.23 151.676 1150.08 149.948 1147.93 148.22 1144.79 148.562 1143.06 150.711 1141.33 152.861 1141.67 156.005 1143.82 157.733 1144.56 158.326 1145.45 158.697 1146.39 158.803 1146.58 158.825 1146.77 158.836 1146.97 158.836 1147.85 158.834 1148.71 158.597 1149.47 158.15L1156.33 166.02 1149.6 185.663 1139.48 187.692C1138.48 185.112 1135.58 183.832 1133 184.833 1130.42 185.834 1129.14 188.737 1130.14 191.317 1131.14 193.897 1134.04 195.177 1136.62 194.176 1138.56 193.424 1139.83 191.552 1139.82 189.472L1149.91 187.45 1163.44 202.978 1160.15 212.545C1157.42 212.114 1154.86 213.976 1154.43 216.704 1154 219.431 1155.86 221.992 1158.59 222.423 1161.32 222.854 1163.88 220.992 1164.31 218.264 1164.45 217.326 1164.33 216.366 1163.96 215.495 1163.53 214.51 1162.79 213.691 1161.85 213.163L1165.14 203.604 1185.62 199.595 1192.18 207.116C1190.38 209.282 1190.67 212.498 1192.84 214.298 1195.01 216.098 1198.22 215.801 1200.02 213.634 1201.82 211.467 1201.53 208.251 1199.36 206.451 1197.72 205.091 1195.41 204.891 1193.56 205.949L1186.84 198.234 1193.53 178.706 1203.53 176.702C1204.52 179.279 1207.41 180.566 1209.99 179.578 1212.18 178.734 1213.49 176.471 1213.13 174.145ZM1135.31 192.664C1133.56 192.932 1131.93 191.737 1131.67 189.995 1131.4 188.253 1132.59 186.623 1134.34 186.355 1136.08 186.087 1137.71 187.282 1137.98 189.024 1137.98 189.024 1137.98 189.024 1137.98 189.024 1138.24 190.765 1137.05 192.391 1135.31 192.664ZM1180.84 145.612C1181.49 143.973 1183.35 143.17 1184.99 143.818 1186.62 144.466 1187.43 146.32 1186.78 147.959 1186.13 149.599 1184.28 150.402 1182.64 149.754 1182.64 149.754 1182.64 149.754 1182.64 149.754 1181 149.103 1180.2 147.251 1180.84 145.612ZM1144.46 155.818C1143.36 154.439 1143.59 152.431 1144.97 151.333 1146.35 150.236 1148.36 150.464 1149.45 151.843 1150.55 153.223 1150.32 155.23 1148.94 156.328 1148.94 156.328 1148.94 156.328 1148.94 156.328 1147.56 157.424 1145.56 157.196 1144.46 155.818ZM1162.33 218.658C1161.68 220.296 1159.83 221.099 1158.19 220.451 1156.55 219.803 1155.75 217.949 1156.4 216.31 1157.04 214.671 1158.9 213.868 1160.54 214.516 1161.32 214.828 1161.96 215.439 1162.29 216.216 1162.63 216.993 1162.64 217.871 1162.33 218.658ZM1196.05 207.082C1197.81 207.08 1199.24 208.508 1199.24 210.27 1199.24 212.032 1197.82 213.462 1196.05 213.463 1195.08 213.464 1194.16 213.021 1193.55 212.259L1193.55 212.259C1192.46 210.88 1192.68 208.874 1194.06 207.776 1194.63 207.327 1195.33 207.082 1196.05 207.082ZM1185.05 197.86 1164.83 201.818 1151.3 186.291 1157.98 166.807 1178.19 162.849 1191.73 178.376ZM1208.67 178.061C1206.93 178.328 1205.3 177.133 1205.03 175.391 1204.77 173.648 1205.96 172.019 1207.7 171.752 1209.45 171.484 1211.07 172.679 1211.34 174.421 1211.61 176.163 1210.41 177.792 1208.67 178.061Z" fill="#7F7F7F" fill-rule="nonzero" fill-opacity="1"/></g></g></g></g></svg>