<svg width="96" height="96" xmlns="http://www.w3.org/2000/svg" xmlns:xlink="http://www.w3.org/1999/xlink" overflow="hidden"><defs><clipPath id="clip0"><rect x="700" y="348" width="96" height="96"/></clipPath></defs><g clip-path="url(#clip0)" transform="translate(-700 -348)"><path d="M772.994 407.6 772.994 398.488C772.992 396.562 771.431 395.002 769.505 395L764.994 395 764.994 390 753.66 390 753.66 387 756.605 387C759.58 386.997 761.991 384.586 761.994 381.611L761.994 370.389C761.991 367.414 759.58 365.003 756.605 365L748.994 365 748.994 361.858C751.133 361.306 752.419 359.124 751.867 356.985 751.315 354.846 749.133 353.56 746.994 354.112 744.855 354.664 743.569 356.846 744.121 358.985 744.485 360.394 745.585 361.494 746.994 361.858L746.994 365 739.382 365C736.407 365.003 733.997 367.414 733.994 370.389L733.994 381.611C733.997 384.586 736.407 386.997 739.382 387L742.66 387 742.66 390 730.994 390 730.994 395.993 724.648 395.993C723.827 395.992 723.161 395.327 723.16 394.506L723.16 385.393C726.147 384.839 728.119 381.969 727.565 378.982 727.382 377.999 726.935 377.083 726.271 376.335L724.777 377.665C726.06 379.111 725.929 381.323 724.484 382.606 723.038 383.889 720.826 383.758 719.542 382.313 718.373 380.995 718.365 379.013 719.524 377.686L718.018 376.369C716.021 378.658 716.257 382.132 718.546 384.129 719.289 384.777 720.191 385.214 721.16 385.393L721.16 394.506C721.162 396.431 722.723 397.991 724.648 397.993L730.994 397.993 730.994 419.025C726.311 419.304 722.74 423.326 723.019 428.01 723.286 432.496 727 435.998 731.494 436L764.494 436C769.186 435.997 772.987 432.192 772.984 427.5 772.982 423.007 769.48 419.292 764.994 419.025L764.994 397 769.505 397C770.326 397.001 770.992 397.667 770.994 398.488L770.994 407.6C768.007 408.154 766.035 411.024 766.589 414.011 766.772 414.994 767.219 415.909 767.882 416.657L769.376 415.327C768.093 413.881 768.225 411.669 769.67 410.386 771.116 409.103 773.328 409.235 774.611 410.68 775.781 411.998 775.789 413.98 774.629 415.307L776.135 416.623C778.132 414.334 777.895 410.86 775.606 408.863 774.864 408.216 773.962 407.78 772.994 407.6ZM745.994 358C745.994 356.895 746.889 356 747.994 356 749.099 356 749.994 356.895 749.994 358 749.994 359.105 749.099 360 747.994 360 746.889 360.001 745.994 359.106 745.993 358.001 745.993 358.001 745.993 358 745.993 358ZM732.994 407.07 741.169 407.07 744.427 400.145 747.488 411.873 751.619 403.373 754.219 409.543 756.235 407.482C756.502 407.237 756.845 407.093 757.207 407.073L762.991 407.073 762.991 419 732.991 419ZM739.382 385C737.512 384.997 735.996 383.481 735.994 381.611L735.994 370.389C735.996 368.519 737.512 367.003 739.382 367L756.605 367C758.476 367.003 759.991 368.518 759.994 370.389L759.994 381.611C759.991 383.482 758.476 384.997 756.605 385L739.382 385ZM744.66 387 751.66 387 751.66 390 744.66 390ZM742.66 392 762.994 392 762.994 405.07 757.21 405.07C756.352 405.088 755.531 405.416 754.897 405.994L751.747 398.528 748.056 406.128 744.968 394.3 739.9 405.07 732.994 405.07 732.994 392ZM770.994 427.5C770.99 431.088 768.082 433.996 764.494 434L731.494 434C727.904 434 724.994 431.09 724.994 427.5 724.994 423.91 727.904 421 731.494 421L764.494 421C768.082 421.004 770.99 423.912 770.994 427.5Z" fill="#7F7F7F" fill-rule="nonzero" fill-opacity="1"/><path d="M757.293 376C757.293 373.625 755.368 371.7 752.993 371.7 750.618 371.7 748.693 373.625 748.693 376 748.693 378.375 750.618 380.3 752.993 380.3 755.368 380.3 757.293 378.375 757.293 376ZM752.993 379C751.336 379 749.993 377.657 749.993 376 749.993 374.343 751.336 373 752.993 373 754.65 373 755.993 374.343 755.993 376 755.993 377.657 754.65 379 752.993 379Z" fill="#7F7F7F" fill-rule="nonzero" fill-opacity="1"/><path d="M754.493 376C754.493 376.828 753.821 377.5 752.993 377.5 752.165 377.5 751.493 376.828 751.493 376 751.493 375.172 752.165 374.5 752.993 374.5 753.821 374.5 754.493 375.172 754.493 376Z" fill="#7F7F7F" fill-rule="nonzero" fill-opacity="1"/><path d="M742.993 371.7C740.618 371.7 738.693 373.625 738.693 376 738.693 378.375 740.618 380.3 742.993 380.3 745.368 380.3 747.293 378.375 747.293 376 747.293 373.625 745.368 371.7 742.993 371.7ZM742.993 379C741.336 379 739.993 377.657 739.993 376 739.993 374.343 741.336 373 742.993 373 744.65 373 745.993 374.343 745.993 376 745.993 377.657 744.65 379 742.993 379Z" fill="#7F7F7F" fill-rule="nonzero" fill-opacity="1"/><path d="M744.493 376C744.493 376.828 743.821 377.5 742.993 377.5 742.165 377.5 741.493 376.828 741.493 376 741.493 375.172 742.165 374.5 742.993 374.5 743.821 374.5 744.493 375.172 744.493 376Z" fill="#7F7F7F" fill-rule="nonzero" fill-opacity="1"/><path d="M749.994 427.5C749.994 428.605 749.099 429.5 747.994 429.5 746.889 429.5 745.994 428.605 745.994 427.5 745.994 426.395 746.889 425.5 747.994 425.5 749.099 425.5 749.994 426.395 749.994 427.5Z" fill="#7F7F7F" fill-rule="nonzero" fill-opacity="1"/><path d="M735.494 427.5C735.494 428.605 734.599 429.5 733.494 429.5 732.389 429.5 731.494 428.605 731.494 427.5 731.494 426.395 732.389 425.5 733.494 425.5 734.599 425.5 735.494 426.395 735.494 427.5Z" fill="#7F7F7F" fill-rule="nonzero" fill-opacity="1"/><path d="M764.494 427.5C764.494 428.605 763.599 429.5 762.494 429.5 761.389 429.5 760.494 428.605 760.494 427.5 760.494 426.395 761.389 425.5 762.494 425.5 763.599 425.5 764.494 426.395 764.494 427.5Z" fill="#7F7F7F" fill-rule="nonzero" fill-opacity="1"/></g></svg>