<svg width="96" height="97" xmlns="http://www.w3.org/2000/svg" xmlns:xlink="http://www.w3.org/1999/xlink" overflow="hidden"><defs><clipPath id="clip0"><rect x="1128" y="361" width="96" height="97"/></clipPath><clipPath id="clip1"><rect x="1128" y="362" width="96" height="96"/></clipPath><clipPath id="clip2"><rect x="1128" y="362" width="96" height="96"/></clipPath><clipPath id="clip3"><rect x="1128" y="362" width="96" height="96"/></clipPath></defs><g clip-path="url(#clip0)" transform="translate(-1128 -361)"><g clip-path="url(#clip1)"><g clip-path="url(#clip2)"><g clip-path="url(#clip3)"><path d="M1194 421.927 1194 419.927 1187 419.927 1187 430.927 1185 430.927 1185 432.927 1204 432.927 1204 398.927 1195.56 398.927 1193.56 400.927 1202 400.927 1202 410.927 1186 410.927 1186 412.927 1202 412.927 1202 419.927 1199 419.927 1199 421.927 1202 421.927 1202 430.927 1189 430.927 1189 421.927 1194 421.927Z" fill="#7F7F7F" fill-rule="nonzero" fill-opacity="1"/><path d="M1207.56 386.927 1205.56 388.927 1213 388.927 1213 441.927 1148.89 441.927C1149.99 440.853 1150.7 439.447 1150.92 437.927L1151 436.927 1151 388.927 1184.48 388.927 1186.48 386.927 1151 386.927 1151 383.927C1151 380.061 1147.87 376.927 1144 376.927 1140.13 376.927 1137 380.061 1137 383.927L1137 436.927 1137.08 437.927C1137.56 441.197 1140.26 443.687 1143.56 443.9L1215 443.927 1215 386.927ZM1139 383.927C1139 381.166 1141.24 378.927 1144 378.927 1146.76 378.927 1149 381.166 1149 383.927L1149 432.037C1146.31 429.276 1141.89 429.217 1139.13 431.906 1139.09 431.949 1139.04 431.993 1139 432.037ZM1139 436.927C1139 434.166 1141.24 431.927 1144 431.927 1146.76 431.927 1149 434.166 1149 436.927 1149 439.688 1146.76 441.927 1144 441.927 1141.24 441.924 1139 439.687 1139 436.927Z" fill="#7F7F7F" fill-rule="nonzero" fill-opacity="1"/><path d="M1172.5 400.927 1174.5 398.927 1160 398.927 1160 432.927 1179 432.927 1179 430.927 1177 430.927 1177 419.927 1170 419.927 1170 421.927 1175 421.927 1175 430.927 1162 430.927 1162 421.927 1165 421.927 1165 419.927 1162 419.927 1162 413 1168.15 413 1168.82 411 1162 411 1162 400.927 1172.5 400.927Z" fill="#7F7F7F" fill-rule="nonzero" fill-opacity="1"/><path d="M1171.5 412.43 1180.92 409.323 1210.36 379.782C1211.14 379.101 1211.22 377.921 1210.54 377.146 1210.5 377.102 1210.46 377.06 1210.41 377.02L1206.91 373.52C1206.15 372.744 1204.91 372.731 1204.13 373.491 1204.12 373.5 1204.11 373.51 1204.1 373.52L1174.61 403.06ZM1205.51 374.942 1208.94 378.377 1205.87 381.452 1202.43 378.017ZM1200.68 379.766 1201.02 379.431 1204.49 382.9 1204.14 383.272 1182.52 404.9C1182.13 403.169 1180.77 401.821 1179.04 401.452ZM1176.36 404.138 1176.77 403.728C1177.17 403.483 1177.63 403.352 1178.1 403.35 1178.77 403.35 1179.42 403.619 1179.89 404.096 1180.74 404.922 1180.87 406.243 1180.2 407.221L1179.84 407.573 1175.67 408.951 1174.99 408.272Z" fill="#7F7F7F" fill-rule="nonzero" fill-opacity="1"/></g></g></g></g></svg>