<svg width="97" height="98" xmlns="http://www.w3.org/2000/svg" xmlns:xlink="http://www.w3.org/1999/xlink" overflow="hidden"><defs><clipPath id="clip0"><rect x="705" y="138" width="97" height="98"/></clipPath><clipPath id="clip1"><rect x="706" y="139" width="96" height="96"/></clipPath><clipPath id="clip2"><rect x="706" y="139" width="96" height="96"/></clipPath><clipPath id="clip3"><rect x="706" y="139" width="96" height="96"/></clipPath></defs><g clip-path="url(#clip0)" transform="translate(-705 -138)"><g clip-path="url(#clip1)"><g clip-path="url(#clip2)"><g clip-path="url(#clip3)"><path d="M796.291 176.088C796.261 175.638 795.933 175.264 795.491 175.175L784.919 173.021C784.59 172.951 784.249 173.054 784.013 173.293L782.685 174.621 763.237 155.371C760.822 152.617 756.687 152.207 753.777 154.431L732.683 171.024C732.456 171.014 732.23 171 732 171 722.064 171.012 714.012 179.064 714 189L714 210.1C711.674 210.578 710.003 212.625 710 215L710 220 754 220 754 215C753.993 212.607 752.294 210.554 749.944 210.1L750 189C749.996 184.979 748.635 181.077 746.138 177.926L755.624 166.576C757.124 167.129 758.771 167.141 760.279 166.611L775.612 181.694 774.156 183.149C773.92 183.384 773.817 183.722 773.881 184.049L775.926 194.732C776.012 195.179 776.388 195.511 776.842 195.541L787.448 196.248 787.516 196.248C788.068 196.266 788.531 195.833 788.549 195.281 788.567 194.728 788.133 194.266 787.581 194.248L777.745 193.593 775.945 184.188 785.045 175.088 794.345 176.982 795 186.827C795.044 187.375 795.515 187.788 796.064 187.759 796.615 187.725 797.034 187.25 797 186.699 797 186.697 797 186.696 797 186.694ZM752 215 752 218 712 218 712 215C712 213.343 713.343 212 715 212L749 212C750.657 212 752 213.343 752 215ZM748 189 747.944 210 716 210 716 189C716.013 180.948 722.003 174.158 729.991 173.143L725.981 176.3C722.458 179.251 721.994 184.499 724.945 188.022 726.526 189.909 728.861 191 731.323 191 731.444 191 731.566 191 731.688 190.991 734.02 190.885 736.2 189.807 737.7 188.019L744.831 179.487C746.887 182.233 747.998 185.57 748 189ZM736.168 186.735C735.035 188.103 733.374 188.924 731.6 188.993 729.825 189.091 728.095 188.418 726.852 187.148 724.383 184.681 724.38 180.68 726.847 178.21 726.973 178.084 727.105 177.963 727.241 177.848L751.041 159.113C751.052 159.105 751.059 159.113 751.057 159.122 750.721 161.626 751.783 164.113 753.823 165.602ZM753.042 160.652C752.682 157.914 754.61 155.403 757.348 155.043 760.086 154.684 762.597 156.611 762.957 159.349 763.317 162.087 761.389 164.598 758.651 164.958 758.218 165.015 757.78 165.015 757.348 164.958 755.104 164.661 753.339 162.896 753.042 160.652ZM765.014 159.936 781.238 176 776.994 180.245 762.137 165.634C763.906 164.34 764.966 162.292 765 160.1 765 160.07 765 160 765 159.946 765 159.928 765 159.926 765.014 159.936Z" fill="#7F7F7F" fill-rule="nonzero" fill-opacity="1"/><path d="M730.636 179.147C729.341 180.181 729.13 182.069 730.164 183.363 731.199 184.658 733.086 184.869 734.381 183.835 734.468 183.766 734.55 183.691 734.629 183.613 735.803 182.444 735.807 180.545 734.639 179.37 733.557 178.284 731.831 178.188 730.635 179.147ZM733.215 182.2C732.82 182.578 732.197 182.578 731.802 182.2 731.411 181.81 731.411 181.176 731.802 180.786 732.192 180.395 732.825 180.395 733.216 180.786 733.607 181.176 733.607 181.809 733.216 182.2 733.216 182.2 733.216 182.2 733.216 182.2Z" fill="#7F7F7F" fill-rule="nonzero" fill-opacity="1"/><path d="M758.49 157.547C757.136 157.277 755.819 158.156 755.549 159.51 755.28 160.864 756.158 162.181 757.513 162.451 758.867 162.72 760.183 161.842 760.453 160.488 760.517 160.165 760.517 159.833 760.453 159.51 760.255 158.519 759.481 157.745 758.49 157.547ZM758 160.5C757.724 160.5 757.5 160.276 757.5 160 757.5 159.724 757.724 159.5 758 159.5 758.276 159.5 758.5 159.724 758.5 160 758.5 160.276 758.276 160.5 758 160.5Z" fill="#7F7F7F" fill-rule="nonzero" fill-opacity="1"/></g></g></g></g></svg>